<mxfile host="app.diagrams.net" modified="2023-10-26T13:19:11.038Z" agent="Mozilla/5.0 (X11; Ubuntu; Linux x86_64; rv:109.0) Gecko/20100101 Firefox/116.0" etag="TlB7LfydZyRE6SrHy02j" version="22.0.8" type="github">
  <diagram name="PÃ¡gina-1" id="txFkV5qtQ6-GotB8eZur">
    <mxGraphModel dx="2431" dy="829" grid="1" gridSize="10" guides="1" tooltips="1" connect="1" arrows="1" fold="1" page="1" pageScale="1" pageWidth="827" pageHeight="1169" math="0" shadow="0">
      <root>
        <mxCell id="0" />
        <mxCell id="1" parent="0" />
        <mxCell id="GlF-iVVCB-7Cre2K1o7R-5" value="&lt;div&gt;PHP&lt;/div&gt;&lt;div&gt;&lt;br&gt;&lt;/div&gt;&lt;div&gt;&lt;br&gt;&lt;/div&gt;&lt;div&gt;&lt;br&gt;&lt;/div&gt;&lt;div&gt;&lt;br&gt;&lt;/div&gt;&lt;div&gt;&lt;br&gt;&lt;/div&gt;&lt;div&gt;&lt;br&gt;&lt;/div&gt;&lt;div&gt;&lt;br&gt;&lt;/div&gt;&lt;div&gt;&lt;br&gt;&lt;/div&gt;&lt;div&gt;&lt;br&gt;&lt;/div&gt;&lt;div&gt;&lt;br&gt;&lt;/div&gt;&lt;div&gt;&lt;br&gt;&lt;/div&gt;&lt;div&gt;&lt;br&gt;&lt;/div&gt;&lt;div&gt;&lt;br&gt;&lt;/div&gt;&lt;div&gt;&lt;br&gt;&lt;/div&gt;&lt;div&gt;&lt;br&gt;&lt;/div&gt;&lt;div&gt;&lt;br&gt;&lt;/div&gt;&lt;div&gt;&lt;br&gt;&lt;/div&gt;" style="ellipse;whiteSpace=wrap;html=1;aspect=fixed;" vertex="1" parent="1">
          <mxGeometry x="240" y="342.5" width="460" height="460" as="geometry" />
        </mxCell>
        <mxCell id="Tcr9Ncec1bthyELoQFyk-28" value="&lt;div&gt;HTML&lt;br&gt;&lt;/div&gt;&lt;div&gt;&lt;br&gt;&lt;/div&gt;&lt;div&gt;&lt;br&gt;&lt;/div&gt;&lt;div&gt;&lt;br&gt;&lt;/div&gt;&lt;div&gt;&lt;br&gt;&lt;/div&gt;&lt;div&gt;&lt;br&gt;&lt;/div&gt;&lt;div&gt;&lt;br&gt;&lt;/div&gt;&lt;div&gt;&lt;br&gt;&lt;/div&gt;&lt;div&gt;&lt;br&gt;&lt;/div&gt;&lt;div&gt;&lt;br&gt;&lt;/div&gt;&lt;div&gt;&lt;br&gt;&lt;/div&gt;&lt;div&gt;&lt;br&gt;&lt;/div&gt;&lt;div&gt;&lt;br&gt;&lt;/div&gt;&lt;div&gt;&lt;br&gt;&lt;/div&gt;&lt;div&gt;&lt;br&gt;&lt;/div&gt;&lt;div&gt;&lt;br&gt;&lt;/div&gt;&lt;div&gt;&lt;br&gt;&lt;/div&gt;&lt;div&gt;&lt;br&gt;&lt;/div&gt;" style="ellipse;whiteSpace=wrap;html=1;aspect=fixed;" parent="1" vertex="1">
          <mxGeometry x="-110" y="370" width="320" height="320" as="geometry" />
        </mxCell>
        <mxCell id="Tcr9Ncec1bthyELoQFyk-31" value="Laravel" style="ellipse;whiteSpace=wrap;html=1;aspect=fixed;" parent="1" vertex="1">
          <mxGeometry x="135" y="447.5" width="50" height="50" as="geometry" />
        </mxCell>
        <mxCell id="Tcr9Ncec1bthyELoQFyk-33" value="JavaScript" style="ellipse;whiteSpace=wrap;html=1;aspect=fixed;" parent="1" vertex="1">
          <mxGeometry x="75" y="400" width="60" height="60" as="geometry" />
        </mxCell>
        <mxCell id="Tcr9Ncec1bthyELoQFyk-34" value="Bootstrap" style="ellipse;whiteSpace=wrap;html=1;aspect=fixed;" parent="1" vertex="1">
          <mxGeometry x="-50" y="412.5" width="60" height="60" as="geometry" />
        </mxCell>
        <mxCell id="Tcr9Ncec1bthyELoQFyk-30" value="Laravel" style="ellipse;whiteSpace=wrap;html=1;aspect=fixed;" parent="1" vertex="1">
          <mxGeometry x="520" y="417.5" width="80" height="80" as="geometry" />
        </mxCell>
        <mxCell id="Tcr9Ncec1bthyELoQFyk-32" value="&lt;div&gt;Mysql&lt;/div&gt;&lt;div&gt;&lt;br&gt;&lt;/div&gt;&lt;div&gt;&lt;br&gt;&lt;/div&gt;&lt;div&gt;&lt;br&gt;&lt;/div&gt;&lt;div&gt;&lt;br&gt;&lt;/div&gt;&lt;div&gt;&lt;br&gt;&lt;/div&gt;" style="ellipse;whiteSpace=wrap;html=1;aspect=fixed;" parent="1" vertex="1">
          <mxGeometry x="810" y="490" width="145" height="145" as="geometry" />
        </mxCell>
        <mxCell id="Tcr9Ncec1bthyELoQFyk-23" value="&lt;div&gt;&lt;br&gt;&lt;/div&gt;&lt;div&gt;&lt;br&gt;&lt;/div&gt;&lt;div&gt;&lt;br&gt;&lt;/div&gt;&lt;div&gt;&lt;br&gt;&lt;/div&gt;&lt;div&gt;&lt;br&gt;&lt;/div&gt;&lt;div&gt;&lt;br&gt;&lt;/div&gt;" style="ellipse;whiteSpace=wrap;html=1;aspect=fixed;direction=south;" parent="1" vertex="1">
          <mxGeometry x="-50" y="472.5" width="200" height="200" as="geometry" />
        </mxCell>
        <mxCell id="Tcr9Ncec1bthyELoQFyk-1" value="Controller" style="html=1;whiteSpace=wrap;" parent="1" vertex="1">
          <mxGeometry x="280" y="547.5" width="110" height="50" as="geometry" />
        </mxCell>
        <mxCell id="Tcr9Ncec1bthyELoQFyk-2" value="Model" style="html=1;whiteSpace=wrap;" parent="1" vertex="1">
          <mxGeometry x="540" y="547.5" width="110" height="50" as="geometry" />
        </mxCell>
        <mxCell id="Tcr9Ncec1bthyELoQFyk-3" value="Banco de dados" style="shape=datastore;whiteSpace=wrap;html=1;" parent="1" vertex="1">
          <mxGeometry x="840" y="542.5" width="60" height="60" as="geometry" />
        </mxCell>
        <mxCell id="Tcr9Ncec1bthyELoQFyk-5" value="" style="endArrow=classic;html=1;rounded=0;exitX=0;exitY=0.75;exitDx=0;exitDy=0;entryX=1;entryY=0.75;entryDx=0;entryDy=0;" parent="1" source="Tcr9Ncec1bthyELoQFyk-2" target="Tcr9Ncec1bthyELoQFyk-1" edge="1">
          <mxGeometry width="50" height="50" relative="1" as="geometry">
            <mxPoint x="390" y="440" as="sourcePoint" />
            <mxPoint x="440" y="390" as="targetPoint" />
          </mxGeometry>
        </mxCell>
        <mxCell id="Tcr9Ncec1bthyELoQFyk-6" value="&lt;div&gt;Manda&amp;nbsp;&lt;/div&gt;&lt;div&gt;temperatura e umidade&lt;/div&gt;" style="edgeLabel;html=1;align=center;verticalAlign=middle;resizable=0;points=[];" parent="Tcr9Ncec1bthyELoQFyk-5" vertex="1" connectable="0">
          <mxGeometry x="0.1799" y="-4" relative="1" as="geometry">
            <mxPoint x="19" y="17" as="offset" />
          </mxGeometry>
        </mxCell>
        <mxCell id="Tcr9Ncec1bthyELoQFyk-7" value="" style="endArrow=classic;html=1;rounded=0;exitX=1;exitY=0.25;exitDx=0;exitDy=0;entryX=0;entryY=0.25;entryDx=0;entryDy=0;" parent="1" source="Tcr9Ncec1bthyELoQFyk-1" target="Tcr9Ncec1bthyELoQFyk-2" edge="1">
          <mxGeometry width="50" height="50" relative="1" as="geometry">
            <mxPoint x="390" y="440" as="sourcePoint" />
            <mxPoint x="440" y="390" as="targetPoint" />
          </mxGeometry>
        </mxCell>
        <mxCell id="Tcr9Ncec1bthyELoQFyk-8" value="&lt;div&gt;Requisita temperatura&lt;/div&gt;&lt;div&gt;e umidade&lt;br&gt;&lt;/div&gt;" style="edgeLabel;html=1;align=center;verticalAlign=middle;resizable=0;points=[];" parent="Tcr9Ncec1bthyELoQFyk-7" vertex="1" connectable="0">
          <mxGeometry x="0.3562" y="-3" relative="1" as="geometry">
            <mxPoint x="-22" y="-20" as="offset" />
          </mxGeometry>
        </mxCell>
        <mxCell id="Tcr9Ncec1bthyELoQFyk-9" value="" style="endArrow=classic;html=1;rounded=0;exitX=0;exitY=0.3;exitDx=0;exitDy=0;entryX=1;entryY=0.25;entryDx=0;entryDy=0;" parent="1" source="Tcr9Ncec1bthyELoQFyk-3" target="Tcr9Ncec1bthyELoQFyk-2" edge="1">
          <mxGeometry width="50" height="50" relative="1" as="geometry">
            <mxPoint x="440" y="660" as="sourcePoint" />
            <mxPoint x="490" y="610" as="targetPoint" />
          </mxGeometry>
        </mxCell>
        <mxCell id="Tcr9Ncec1bthyELoQFyk-12" value="&lt;div&gt;retorna dados de&amp;nbsp;&lt;/div&gt;&lt;div&gt;temperatura e umidade&lt;/div&gt;" style="edgeLabel;html=1;align=center;verticalAlign=middle;resizable=0;points=[];" parent="Tcr9Ncec1bthyELoQFyk-9" vertex="1" connectable="0">
          <mxGeometry x="0.1437" y="3" relative="1" as="geometry">
            <mxPoint x="16" y="-21" as="offset" />
          </mxGeometry>
        </mxCell>
        <mxCell id="Tcr9Ncec1bthyELoQFyk-10" value="" style="endArrow=classic;html=1;rounded=0;exitX=1;exitY=0.75;exitDx=0;exitDy=0;entryX=0;entryY=0.7;entryDx=0;entryDy=0;" parent="1" source="Tcr9Ncec1bthyELoQFyk-2" target="Tcr9Ncec1bthyELoQFyk-3" edge="1">
          <mxGeometry width="50" height="50" relative="1" as="geometry">
            <mxPoint x="450" y="670" as="sourcePoint" />
            <mxPoint x="500" y="620" as="targetPoint" />
          </mxGeometry>
        </mxCell>
        <mxCell id="Tcr9Ncec1bthyELoQFyk-11" value="&lt;div&gt;Pesquisa dos dados de&amp;nbsp;&lt;/div&gt;&lt;div&gt;temperatura e umidade&lt;br&gt;&lt;/div&gt;" style="edgeLabel;html=1;align=center;verticalAlign=middle;resizable=0;points=[];" parent="Tcr9Ncec1bthyELoQFyk-10" vertex="1" connectable="0">
          <mxGeometry x="-0.3899" y="1" relative="1" as="geometry">
            <mxPoint x="32" y="23" as="offset" />
          </mxGeometry>
        </mxCell>
        <mxCell id="Tcr9Ncec1bthyELoQFyk-13" value="View" style="html=1;whiteSpace=wrap;" parent="1" vertex="1">
          <mxGeometry x="25" y="547.5" width="110" height="50" as="geometry" />
        </mxCell>
        <mxCell id="Tcr9Ncec1bthyELoQFyk-14" value="" style="endArrow=classic;html=1;rounded=0;exitX=0;exitY=0.75;exitDx=0;exitDy=0;entryX=1;entryY=0.75;entryDx=0;entryDy=0;" parent="1" source="Tcr9Ncec1bthyELoQFyk-1" target="Tcr9Ncec1bthyELoQFyk-13" edge="1">
          <mxGeometry width="50" height="50" relative="1" as="geometry">
            <mxPoint x="390" y="320" as="sourcePoint" />
            <mxPoint x="440" y="270" as="targetPoint" />
          </mxGeometry>
        </mxCell>
        <mxCell id="Tcr9Ncec1bthyELoQFyk-15" value="Renderiza a pagina" style="edgeLabel;html=1;align=center;verticalAlign=middle;resizable=0;points=[];" parent="Tcr9Ncec1bthyELoQFyk-14" vertex="1" connectable="0">
          <mxGeometry x="0.2375" y="3" relative="1" as="geometry">
            <mxPoint x="20" y="2" as="offset" />
          </mxGeometry>
        </mxCell>
        <mxCell id="Tcr9Ncec1bthyELoQFyk-17" value="" style="endArrow=classic;html=1;rounded=0;exitX=1;exitY=0.25;exitDx=0;exitDy=0;entryX=0;entryY=0.25;entryDx=0;entryDy=0;" parent="1" source="Tcr9Ncec1bthyELoQFyk-13" target="Tcr9Ncec1bthyELoQFyk-1" edge="1">
          <mxGeometry width="50" height="50" relative="1" as="geometry">
            <mxPoint x="390" y="320" as="sourcePoint" />
            <mxPoint x="337.5" y="220" as="targetPoint" />
          </mxGeometry>
        </mxCell>
        <mxCell id="Tcr9Ncec1bthyELoQFyk-19" value="&lt;div&gt;Acessa uma rota&lt;/div&gt;&lt;div&gt;que direciona para uma&lt;br&gt;&lt;/div&gt;" style="edgeLabel;html=1;align=center;verticalAlign=middle;resizable=0;points=[];" parent="Tcr9Ncec1bthyELoQFyk-17" vertex="1" connectable="0">
          <mxGeometry x="0.0466" y="-3" relative="1" as="geometry">
            <mxPoint x="-4" y="-15" as="offset" />
          </mxGeometry>
        </mxCell>
        <mxCell id="Tcr9Ncec1bthyELoQFyk-25" value="AplicaÃ§Ã£o rodando no rasp" style="text;html=1;align=center;verticalAlign=middle;resizable=0;points=[];autosize=1;strokeColor=none;fillColor=none;" parent="1" vertex="1">
          <mxGeometry x="380" y="280" width="170" height="30" as="geometry" />
        </mxCell>
        <mxCell id="Tcr9Ncec1bthyELoQFyk-27" value="&lt;div&gt;Pode ser acessado de&lt;/div&gt;qualquer mÃ¡quina" style="text;html=1;align=center;verticalAlign=middle;resizable=0;points=[];autosize=1;strokeColor=none;fillColor=none;" parent="1" vertex="1">
          <mxGeometry x="-15" y="497.5" width="140" height="40" as="geometry" />
        </mxCell>
      </root>
    </mxGraphModel>
  </diagram>
</mxfile>
